<svg xmlns="http://www.w3.org/2000/svg" width="32" height="42" viewBox="0 0 32 42" fill="none">
  <g clip-path="url(#clip0_786_31053)">
    <path d="M0.5 33V0.5H31.5V33C31.5 36.5 28.5 38 24 38C19.5 38 16 40 16 41C16 40 12.5 38.5 9.5 38C6.5 37.5 0.5 38.5 0.5 33Z" fill="white"/>
    <path d="M10.262 22.7992C10.0724 22.4778 9.90877 22.1417 9.77253 21.7941C9.59005 22.0316 9.33893 22.2066 9.05357 22.2951C8.76661 22.3527 6.31366 22.5775 6.29252 22.5775C5.86054 22.6109 5.41345 22.6808 5.11741 23.1423C4.95058 23.4354 4.80422 23.7398 4.67938 24.0533C4.44378 24.6223 4.17132 25.1751 3.86375 25.7083C3.86375 25.7083 3.01186 26.9776 2.90916 27.1112C2.80645 27.2449 2.85781 27.3815 2.90916 27.5485L2.95447 27.7277C2.92946 27.9529 2.86502 28.1718 2.76416 28.3745V28.4261L3.41666 29.2794L3.45895 29.2976L3.49822 29.2794L4.31084 28.2408V28.1802L4.04802 27.8127L3.86979 27.591L3.91208 27.4787C4.12657 27.4452 4.25042 27.3967 4.27458 27.342C4.31006 27.2043 4.3223 27.0617 4.31084 26.9199C4.28114 26.553 4.34346 26.1844 4.49209 25.848C4.7867 25.4208 5.11074 25.0149 5.46178 24.6333C5.5645 24.521 5.66116 24.4116 5.79106 24.2568C6.04481 23.9379 6.16565 23.9531 6.31065 23.9319C6.92469 23.9437 7.53434 24.0387 8.12317 24.2142C8.67293 24.4147 10.2196 24.5695 11.5368 24.4025C11.4099 24.1839 10.7815 23.6009 10.262 22.7992Z" fill="black"/>
    <path d="M23.7591 26.504C23.0069 26.006 22.0856 25.429 21.6626 25.3106C21.3153 25.2104 20.7564 25.344 20.2126 25.5049C20.4937 25.7468 20.7029 26.0621 20.8169 26.4159C20.8824 26.581 20.9569 26.7421 21.0404 26.8988C21.2161 27.2026 21.4184 27.4901 21.6445 27.7582C21.9466 28.1256 22.1853 28.4171 22.2004 28.8423C22.2155 29.2673 21.7774 30.5853 21.3726 31.3323C21.0192 31.9851 20.557 32.7139 20.2791 33.1543C20.1794 33.3091 20.1069 33.4276 20.0707 33.4883C20.0157 33.5845 19.9712 33.6863 19.9377 33.792C19.9075 33.9158 19.8497 34.031 19.7686 34.129C19.6266 34.2627 19.3819 34.4327 19.3305 34.4874L19.0829 34.5238H19.0526L18.376 35.2648V35.3194L18.4213 35.3497H19.8592L19.9015 35.3254L20.1733 34.9003V34.7455L20.2942 34.5997C20.3425 34.5997 20.4633 34.5997 20.5963 34.5997L20.6325 34.5785C21.0285 33.8965 21.3738 33.1859 21.6657 32.4528C21.7986 32.1491 21.9013 31.9062 21.9677 31.7969C22.5036 30.8172 23.1307 29.891 23.8407 29.0305C24.035 28.8117 24.2052 28.5725 24.3482 28.3168C24.3845 28.1924 24.3029 28.074 24.1881 27.913C23.8825 27.5098 23.7305 27.0101 23.7591 26.504Z" fill="black"/>
    <path d="M16.0015 42L15.8112 41.8664C15.7961 41.833 14.3823 38.4228 6.04174 38.4228C2.03306 38.4228 2.39302e-05 36.364 2.39302e-05 32.3009V0.206516C-0.000793243 0.153068 0.0193466 0.101445 0.0560899 0.0628048C0.0928328 0.0241646 0.143228 0.00161232 0.19638 2.30094e-05H31.7946C31.8217 -0.000386536 31.8486 0.0046748 31.8737 0.014907C31.8987 0.0251393 31.9216 0.0403341 31.9407 0.0595909C31.9598 0.0788476 31.975 0.101774 31.9852 0.127012C31.9954 0.15225 32.0004 0.179285 32 0.206516V32.3009C32 36.364 29.967 38.4228 25.9582 38.4228C17.5784 38.4228 16.207 41.833 16.1918 41.8664L15.9985 42M0.848888 0.989972V31.9639C0.848888 35.6959 2.64026 37.196 6.31966 37.196C13.2676 37.196 15.4215 39.0727 15.9864 39.9776C16.5604 39.0666 18.7233 37.196 25.6531 37.196C29.3356 37.196 31.1239 35.6959 31.1239 31.9639V0.989972H0.848888Z" fill="black"/>
    <path d="M28.387 31.393C28.1967 30.3453 28.1091 29.322 28.0456 28.578C28.0339 28.1831 27.9823 27.7903 27.8915 27.4058C27.7048 27.1702 27.4826 26.9653 27.233 26.7985C26.7859 26.4432 26.2301 26.0029 26.1576 25.7084C25.9099 24.6971 26.0216 23.6738 26.1213 22.7719C26.1913 22.2782 26.2187 21.7794 26.2029 21.2809C26.0147 21.1369 25.8361 20.9807 25.6682 20.8133C25.8287 20.9227 26.0049 21.0067 26.1908 21.0623C26.3856 21.1283 26.5895 21.1631 26.795 21.1655C26.9503 21.167 27.1051 21.1456 27.2542 21.1018C27.3355 21.0865 27.4128 21.0547 27.4815 21.0082C27.55 20.9617 27.6084 20.9016 27.6529 20.8315L27.6227 20.7646C27.1914 20.5474 26.8137 20.2362 26.5171 19.8537C26.3067 19.5853 26.0547 19.3526 25.7709 19.1644C25.5546 19.0708 25.3271 19.0054 25.0943 18.97L24.9311 18.9366C24.9039 18.9366 24.8254 18.891 24.7257 18.8455C24.3209 18.6512 23.3723 18.1987 22.4721 18.2109C21.7182 18.2414 20.9687 18.3431 20.2337 18.5145C19.7161 18.6449 19.1843 18.7092 18.6507 18.7058C18.2145 18.6736 17.7769 18.6645 17.3397 18.6785C16.5059 18.6785 15.8987 18.6998 15.3067 18.1805C14.2947 17.2968 14.6391 15.9698 15.0378 14.4332C15.3194 13.5252 15.471 12.5814 15.4879 11.6305C15.2563 11.5709 15.0379 11.4679 14.8445 11.3268C15.0937 11.4021 15.3516 11.445 15.6118 11.4543C15.9376 11.467 16.2633 11.4249 16.5754 11.3298C16.8476 11.2316 17.0852 11.0553 17.2587 10.8226C17.4322 10.5899 17.5339 10.3113 17.5511 10.021C17.5511 9.8965 17.4877 9.86613 17.4545 9.85701C17.0477 9.84546 16.6412 9.8894 16.2462 9.98761L15.7356 10.0787C16.4485 9.8327 17.1275 9.49702 17.7566 9.0796C17.8639 8.99827 17.9819 8.9318 18.107 8.88228H18.2218C18.6175 8.90958 19.6658 8.98551 19.9587 8.12919L19.9195 8.0168L19.8047 8.03806L19.7806 8.06539C19.6507 8.23007 19.4805 8.35801 19.2867 8.43676C19.0929 8.51551 18.8821 8.54241 18.6749 8.51478L18.8743 8.34476C19.2281 8.05862 19.5439 7.72795 19.8138 7.36088C20.0131 7.11188 20.6687 6.14623 20.8379 4.2635C20.8379 4.1724 20.8379 4.08433 20.8379 3.99627C20.8379 3.90821 20.8379 3.82015 20.8379 3.73816C20.8892 3.30695 20.9043 2.49617 20.4693 1.97082L20.3334 1.94653L20.288 2.07407L20.3334 2.18035C20.5171 2.52836 20.5869 2.92583 20.5327 3.31606C20.524 3.38146 20.4943 3.44223 20.4482 3.48915L20.4119 3.45575L20.3756 3.39502C20.2245 3.11624 19.9707 2.90805 19.6687 2.81501L19.554 2.8636L19.5872 2.99721C19.8202 3.17478 20.0089 3.4044 20.1384 3.66792C20.2679 3.93144 20.3347 4.22162 20.3334 4.51554C20.3275 5.25765 20.1105 5.98257 19.708 6.60476L19.5691 6.71711C19.5177 6.71711 19.4543 6.69282 19.3516 6.61084C19.1673 6.46507 18.6387 5.52371 19.122 4.35156L19.0737 4.20884L18.9287 4.27261C18.6755 4.67598 18.5491 5.14662 18.5658 5.62325C18.5825 6.09987 18.7415 6.5604 19.0223 6.94486L19.1159 7.10884C19.1579 7.19661 19.1707 7.29565 19.1522 7.39125C19.1159 7.53701 18.2459 8.25059 17.9439 8.39339C17.7635 8.48765 17.5551 8.51252 17.3578 8.46317C17.1071 8.36908 15.8474 7.41251 16.3428 5.4569L16.3035 5.32633L16.1827 5.39313C15.7084 6.66245 15.9018 7.73439 16.7657 8.58166L16.8322 8.65451L16.8654 8.80329L16.7415 8.9339C16.2986 9.18226 15.7952 9.30115 15.2885 9.277C15.1338 9.21578 15.0004 9.11013 14.9049 8.97331C14.7119 8.72398 14.5749 8.43547 14.5035 8.12774C14.432 7.82 14.4278 7.50036 14.4911 7.19083L14.4095 7.07544L14.2856 7.1544C14.163 7.50548 14.1236 7.88054 14.1708 8.24962C14.2181 8.61873 14.3505 8.97153 14.5575 9.28007L14.6481 9.44403C14.5605 9.54427 13.3643 9.59588 13.1981 9.49266C11.9143 8.70613 11.2979 6.86895 11.3403 6.03083C11.4127 4.51251 11.8206 3.36161 12.5486 2.60852V2.48402H12.4036C11.4641 3.23104 11.2436 4.13292 11.0955 4.99229C11.0925 5.04331 11.0784 5.09305 11.0544 5.13812C11.0305 5.18319 10.9971 5.22252 10.9566 5.25344L10.7693 5.23219C10.7693 5.23219 10.141 4.85868 10.3071 3.73208L10.2407 3.62276L10.135 3.6835C10.0075 4.0036 9.98618 4.35656 10.0743 4.68979C10.1626 5.02302 10.3555 5.3187 10.6243 5.53282L10.6455 5.55407C10.7375 5.64123 10.8053 5.75118 10.8419 5.87293C10.922 6.2422 10.9655 6.61857 10.9717 6.99648L10.8267 7.19387L10.6817 7.16047C10.5508 7.07112 10.44 6.95528 10.3563 6.82037C10.2725 6.68546 10.2177 6.53444 10.1954 6.37701L10.0927 6.29806L10.0171 6.43471C10.0438 6.66693 10.1284 6.88862 10.2631 7.0792C10.3977 7.26978 10.5781 7.42308 10.7875 7.52487L10.8479 7.5613C10.9724 7.64699 11.0757 7.76022 11.1499 7.8923C11.3765 8.32651 11.591 8.67576 11.7088 8.86403L11.7723 8.97032C11.8006 9.00618 11.8204 9.04802 11.8303 9.09277C11.8403 9.13743 11.8401 9.18388 11.8296 9.22846L11.7209 9.29825C11.5396 9.33168 11.0623 9.42279 10.5126 8.77898L10.3947 8.75475L10.3645 8.87922C10.7271 9.67786 11.4611 9.68093 11.8508 9.68392C11.9263 9.68691 12.0012 9.69813 12.0743 9.71736C12.268 9.75944 12.4416 9.86654 12.5667 10.021C12.4055 10.0139 12.2439 10.0282 12.0864 10.0635C11.9777 10.0969 11.9323 10.1911 11.884 10.2791C11.8641 10.3387 11.8308 10.393 11.7869 10.4377C11.7429 10.4824 11.6893 10.5165 11.6303 10.5372C11.3282 10.6344 9.7785 11.0201 9.62442 11.0565C9.41298 11.1051 9.53682 12.1315 9.53986 12.1406C9.70954 12.3869 9.9689 12.5559 10.2619 12.6112C10.7236 12.6212 11.1788 12.7244 11.6001 12.9149L11.7119 12.9636L11.7964 13C11.9379 13.061 12.0832 13.1127 12.2315 13.1548C12.4157 13.1973 12.6815 13.2429 12.6815 13.2429C12.4805 13.2592 12.2784 13.2592 12.0774 13.2429L11.8599 13.2156C12.0079 14.1509 11.2738 15.2622 10.4975 16.3282C9.68482 17.4426 8.85106 19.134 9.4885 20.8528C9.57306 21.0927 9.66674 21.3052 9.76034 21.5087C9.96234 22.0003 10.2198 22.4669 10.5276 22.8995C10.7693 23.1788 11.2859 23.7345 11.5367 24.0017C11.5367 23.7922 11.452 23.2305 11.452 23.2305L11.8387 24.5089C11.875 24.5969 11.9082 24.6911 11.9444 24.7882C12.0199 25.0008 12.1015 25.2195 12.1951 25.4229C12.3263 25.702 12.4778 25.971 12.6483 26.2276C12.8086 26.449 12.9217 26.7013 12.9806 26.9685C13.0199 27.2024 13.0078 28.2622 13.0047 28.7177V28.9059C13.0313 29.077 13.0811 29.2436 13.1528 29.4009C13.2321 29.578 13.2879 29.7649 13.3189 29.9567V32.969C13.3019 33.0975 13.2619 33.222 13.2011 33.3365L13.1588 33.4549C13.1588 33.4761 13.1588 33.8192 13.1316 33.9772C13.1135 34.0921 13.0712 34.2017 13.0078 34.2991L12.6755 34.4357L12.6513 34.4539L12.0864 35.286V35.3406L12.1317 35.368H13.5847L13.6361 35.3224L13.6844 34.7151V34.6786L13.5968 34.5633L13.7177 34.375C13.8446 34.375 14.1346 34.375 14.2071 34.2991C14.2795 34.2231 14.2523 34.0925 14.2071 33.6917C14.1859 33.5065 14.1618 33.3151 14.1618 33.1786V32.7959C14.1618 31.9882 14.1618 30.3058 14.1618 30.0356C14.176 29.9151 14.2013 29.7962 14.2373 29.6803C14.3007 29.4651 14.3363 29.2426 14.343 29.0183C14.343 28.7359 14.4518 27.8857 14.4911 27.1963C14.5143 26.8021 14.5978 26.414 14.7387 26.0454C14.8777 25.6658 14.9835 25.2954 15.3157 25.2347C15.7429 25.2314 16.1683 25.2907 16.5784 25.4107C17.0991 25.5435 17.6311 25.6259 18.1674 25.6568C18.5072 25.6467 18.8462 25.6164 19.1824 25.5657C19.5147 25.4867 19.8954 25.3531 20.0192 25.3136C20.5418 25.1375 21.3847 24.7458 21.9163 24.9249C22.2637 25.0403 23.4026 25.9907 24.1668 26.6527C24.5115 26.88 24.8433 27.1264 25.1607 27.3906C25.6954 27.8431 26.5895 28.6053 26.8161 29.073C27.23 29.9536 27.4203 30.895 27.7224 32.3495C27.8034 32.779 27.8448 33.2151 27.8463 33.6523C27.8471 33.7624 27.8843 33.8692 27.9519 33.9559L28.0366 34.129C28.0547 34.2261 28.0366 34.4661 27.9731 34.5055L27.6046 34.7849V34.8031L27.3539 35.3224V35.371L27.3961 35.3953H28.6287L28.68 35.3528L28.7948 34.6999V34.6725L28.7223 34.4934L28.7646 34.2383C28.8895 34.1467 28.9926 34.0285 29.0667 33.8922V33.8527C28.7632 33.0562 28.5356 32.2327 28.387 31.393ZM12.8477 11.1385C12.7379 11.1521 12.6263 11.1363 12.5244 11.0929C12.5507 11.0269 12.5916 10.9677 12.6439 10.9199C12.6963 10.872 12.7587 10.8367 12.8265 10.8166C12.9896 10.7892 13.1286 10.9775 13.1467 11.011C13.0627 11.0836 12.9581 11.1282 12.8477 11.1385Z" fill="black"/>
  </g>
  <defs>
    <clipPath id="clip0_786_31053">
      <rect width="32" height="42" fill="white"/>
    </clipPath>
  </defs>
</svg>
